# xmcd
#
# Track frame offsets:
# 150
# 9984
# 20503
# 29242
# 40047
# 51652
# 59840
# 69509
# 80783
# 91938
# 101216
#
# Disc length: 1466 seconds
#
#
# Revision: 0
# Processed by: cddbd v1.4PL0 Copyright (c) Steve Scherf et al.
# Submitted via: FreeRIP 2.00 
#
DISCID=9c05b80b
DTITLE=Johnny Cash - Story Songs Of The Trains And Rivers
DYEAR=1969
DGENRE=Country
TTITLE0=Hey Porter
TTITLE1=Train Of Love
TTITLE2=Blue Train
TTITLE3=I Heard That Lonesome Whistle
TTITLE4=Port Of Lonely Hearts
TTITLE5=Wreck Of The Old 97
TTITLE6=Rock Island Line
TTITLE7=Big River
TTITLE8=Wide Open Road
TTITLE9=Down The Street To 301
TTITLE10=Life Goes On
EXTD=SUN 104
EXTT0=
EXTT1=
EXTT2=
EXTT3=
EXTT4=
EXTT5=
EXTT6=
EXTT7=
EXTT8=
EXTT9=
EXTT10=
PLAYORDER=
